<?xml version="1.0" encoding="utf-8"?>
<!-- Generator: Adobe Illustrator 24.2.3, SVG Export Plug-In . SVG Version: 6.00 Build 0)  -->
<svg version="1.1" id="Layer_1" xmlns="http://www.w3.org/2000/svg" xmlns:xlink="http://www.w3.org/1999/xlink" x="0px" y="0px"
	 viewBox="0 0 20 20" style="enable-background:new 0 0 20 20;" xml:space="preserve">
<g>
	<path d="M11.2,10.9c0.8-1,1.2-2.2,1.2-3.5c0-1.4-0.5-2.7-1.4-3.7c1.2-1.2,3-1.3,4.4-0.3c1.5,1.1,1.7,3.2,0.6,4.6
		c-0.2,0.2-0.2,0.5-0.2,0.7c0,0.6,0.5,1.2,1.2,1.2c0.4,0,0.7-0.2,0.9-0.4c1.9-2.5,1.5-6-1-7.9c-2.4-1.9-5.7-1.5-7.7,0.7
		C8.4,1.9,7.6,1.7,6.7,1.7C3.5,1.7,1,4.3,1,7.4c0,3.1,2.5,5.7,5.7,5.7C8.4,13.1,10.1,12.3,11.2,10.9z M3.3,7.8
		C3.1,6,4.4,4.3,6.3,4.1c0.1,0,0.3,0,0.4,0C8.4,4.1,9.8,5.3,10,7c0.2,1.8-1.1,3.5-2.9,3.7C5.2,11,3.6,9.7,3.3,7.8z"/>
	<path d="M17.5,10.7c-2.2-0.6-4.1-0.1-5.7,1.2c-1.2,1.1-2,2.6-2.6,3.8c-0.2,0.4-0.5,1-0.7,1.3l-3.7-3.8c-0.4-0.4-1.1-0.4-1.6,0
		c-0.5,0.4-0.5,1.2-0.1,1.6l4.4,4.4l0.2,0.1c0.3,0.1,0.5,0.2,0.8,0.2c0.2,0,0.4,0,0.6-0.1c0.4-0.1,0.7-0.4,1-0.8
		c0.4-0.5,0.8-1.2,1.1-2c0.5-1.1,1.1-2.3,2-3.1c0.6-0.5,1.6-1.2,3.6-0.7c0.6,0.2,1.3-0.2,1.4-0.9C18.5,11.5,18.1,10.9,17.5,10.7z"/>
</g>
</svg>
